<svg width="35" height="35" viewBox="0 0 35 35" fill="none" xmlns="http://www.w3.org/2000/svg">
<g clip-path="url(#clip0_297_72)">
<path d="M34.5 17.2496C34.5 7.72268 26.7769 -0.000404358 17.25 -0.000404358C7.72308 -0.000404358 0 7.72268 0 17.2496C0 25.8596 6.30808 32.9959 14.5547 34.29V22.2359H10.1748V17.2496H14.5547V13.4492C14.5547 9.12593 17.13 6.73788 21.0703 6.73788C22.9576 6.73788 24.9316 7.07479 24.9316 7.07479V11.3199H22.7565C20.6136 11.3199 19.9453 12.6496 19.9453 14.0138V17.2496H24.7295L23.9647 22.2359H19.9453V34.29C28.1919 32.9959 34.5 25.8596 34.5 17.2496Z" fill="#1877F2"/>
<path d="M23.9647 22.2363L24.7295 17.25H19.9453V14.0142C19.9453 12.65 20.6136 11.3203 22.7565 11.3203H24.9316V7.0752C24.9316 7.0752 22.9576 6.73828 21.0703 6.73828C17.13 6.73828 14.5547 9.12633 14.5547 13.4496V17.25H10.1748V22.2363H14.5547V34.2904C15.4329 34.4282 16.3331 34.5 17.25 34.5C18.1669 34.5 19.0671 34.4282 19.9453 34.2904V22.2363H23.9647Z" fill="white"/>
</g>
<defs>
<clipPath id="clip0_297_72">
<rect width="34.5" height="34.5" fill="white"/>
</clipPath>
</defs>
</svg>
