<svg width="35" height="35" viewBox="0 0 35 35" fill="none" xmlns="http://www.w3.org/2000/svg">
<g clip-path="url(#clip0_297_104)">
<path d="M17.2634 34.5269C26.7978 34.5269 34.5269 26.7978 34.5269 17.2634C34.5269 7.72911 26.7978 0 17.2634 0C7.72911 0 0 7.72911 0 17.2634C0 26.7978 7.72911 34.5269 17.2634 34.5269Z" fill="url(#paint0_linear_297_104)"/>
<path fill-rule="evenodd" clip-rule="evenodd" d="M7.79814 17.0755C12.8266 14.8705 16.1878 13.4454 17.8819 12.7462C22.6684 10.7563 23.6633 10.4068 24.3087 10.3799C24.4431 10.3799 24.7658 10.4068 24.9809 10.5681C25.1423 10.7026 25.196 10.8908 25.2229 11.0252C25.2498 11.1597 25.2767 11.4555 25.2498 11.6975C24.9809 14.4134 23.8784 21.0553 23.2868 24.0938C23.0448 25.3846 22.5608 25.8148 22.1037 25.8686C21.1087 25.9493 20.3289 25.1963 19.3609 24.5779C17.855 23.5829 16.9946 22.9645 15.5156 21.9964C13.8215 20.867 14.924 20.2486 15.8921 19.2536C16.1341 18.9847 20.5709 14.9781 20.6516 14.6016C20.6516 14.5478 20.6785 14.3865 20.5709 14.3058C20.4634 14.2252 20.3289 14.2521 20.2214 14.2789C20.06 14.3058 17.6399 15.9192 12.9341 19.0923C12.235 19.5763 11.6165 19.7914 11.0518 19.7914C10.4334 19.7914 9.2502 19.4418 8.36283 19.1461C7.28722 18.7965 6.42674 18.6083 6.50741 18.0167C6.56119 17.7209 6.99143 17.3982 7.79814 17.0755Z" fill="white"/>
</g>
<defs>
<linearGradient id="paint0_linear_297_104" x1="0" y1="17.2509" x2="34.5019" y2="17.2509" gradientUnits="userSpaceOnUse">
<stop stop-color="#2AABEE"/>
<stop offset="1" stop-color="#229ED9"/>
</linearGradient>
<clipPath id="clip0_297_104">
<rect width="34.5" height="34.5" fill="white"/>
</clipPath>
</defs>
</svg>
